<?xml version="1.0" encoding="utf-8"?>
<!-- Generator: Adobe Illustrator 13.0.0, SVG Export Plug-In . SVG Version: 6.00 Build 14948)  -->
<!DOCTYPE svg PUBLIC "-//W3C//DTD SVG 1.1//EN" "http://www.w3.org/Graphics/SVG/1.1/DTD/svg11.dtd" [
	<!ENTITY ns_flows "http://ns.adobe.com/Flows/1.0/">
	<!ENTITY ns_extend "http://ns.adobe.com/Extensibility/1.0/">
	<!ENTITY ns_ai "http://ns.adobe.com/AdobeIllustrator/10.0/">
	<!ENTITY ns_graphs "http://ns.adobe.com/Graphs/1.0/">
]>
<svg version="1.1" id="Layer_1" xmlns:x="&ns_extend;" xmlns:i="&ns_ai;" xmlns:graph="&ns_graphs;"
	 xmlns="http://www.w3.org/2000/svg" xmlns:xlink="http://www.w3.org/1999/xlink" xmlns:a="http://ns.adobe.com/AdobeSVGViewerExtensions/3.0/"
	 x="0px" y="0px" width="40px" height="40px" viewBox="0 0 40 40" enable-background="new 0 0 40 40" xml:space="preserve">
<g>
	<path fill="#D3D3D3" d="M3.703,15.405c-4.411,0-7.998,3.587-7.998,7.998c0,4.411,3.586,7.999,7.998,7.999c4.412,0,8-3.588,8-7.999
		C11.703,18.993,8.115,15.405,3.703,15.405z M3.703,27.403c-2.204,0-4-1.793-4-4c0-2.202,1.796-3.999,4-3.999
		c2.204,0,4,1.796,4,3.999C7.703,25.61,5.907,27.403,3.703,27.403z M3.783,21.403h-0.04c-1.104,0-1.979,0.896-1.979,2
		c0,1.104,0.917,1.999,2.02,1.999c1.104,0,2-0.896,2-1.999C5.783,22.299,4.887,21.403,3.783,21.403z M48.311,13.625
		c1.061-1.62,2.436-2.523,2.447-2.527c0.757-0.476,1.104-1.391,0.856-2.248c-0.245-0.855-1.028-1.443-1.92-1.443h-9.239
		C28.49-3,10.909-3.004-1.055,7.407h-9.239c-0.892,0-1.671,0.588-1.919,1.443c-0.249,0.86,0.099,1.777,0.855,2.248
		c0.017,0.013,1.384,0.904,2.444,2.527c-2.187,2.78-3.38,6.195-3.38,9.778c0,8.823,7.175,15.997,15.997,15.997
		c4.474,0,8.523-1.846,11.429-4.814l3.156,4.047c0.38,0.483,0.96,0.768,1.577,0.768H19.9c0.627-0.013,1.215-0.315,1.58-0.824
		l2.849-3.929c2.902,2.933,6.926,4.753,11.367,4.753c8.823,0,15.998-7.174,15.998-15.997C51.694,19.824,50.502,16.405,48.311,13.625
		z M3.703,35.4c-6.614,0-11.997-5.382-11.997-11.997c0-3.047,1.155-5.938,3.247-8.138c0.564-0.592,0.711-1.459,0.376-2.204
		c-0.272-0.6-0.584-1.155-0.917-1.655h9.291c6.614,0,11.998,5.383,11.998,11.997C15.701,30.019,10.317,35.4,3.703,35.4z
		 M19.804,34.077l-2.181-2.797c1.321-2.326,2.077-5.015,2.077-7.877c0-8.189-6.183-14.958-14.127-15.886
		c8.711-5.217,19.547-5.217,28.256,0C25.884,8.444,19.7,15.213,19.7,23.403c0,2.88,0.765,5.584,2.102,7.921L19.804,34.077z
		 M35.696,35.4c-6.614,0-11.996-5.382-11.996-11.997c0-6.614,5.382-11.997,11.996-11.997h9.291c-0.332,0.5-0.645,1.056-0.916,1.655
		c-0.331,0.744-0.188,1.616,0.376,2.204c2.096,2.204,3.247,5.091,3.247,8.138C47.694,30.019,42.312,35.4,35.696,35.4z
		 M35.696,15.405c-4.41,0-7.998,3.587-7.998,7.998c0,4.411,3.588,7.999,7.998,7.999c4.412,0,7.999-3.588,7.999-7.999
		C43.695,18.993,40.108,15.405,35.696,15.405z M35.696,27.403c-2.207,0-3.998-1.793-3.998-4c0-2.202,1.791-3.999,3.998-3.999
		c2.209,0,4,1.796,4,3.999C39.696,25.61,37.905,27.403,35.696,27.403z M35.777,21.403h-0.04c-1.104,0-1.98,0.896-1.98,2
		c0,1.104,0.92,1.999,2.021,1.999c1.104,0,1.999-0.896,1.999-1.999C37.776,22.299,36.881,21.403,35.777,21.403z"/>
</g>
</svg>
